<mxfile host="app.diagrams.net" modified="2023-09-15T17:59:21.949Z" agent="Mozilla/5.0 (Windows NT 10.0; Win64; x64) AppleWebKit/537.36 (KHTML, like Gecko) Chrome/114.0.0.0 Safari/537.36 OPR/100.0.0.0" version="21.7.4" etag="uqmEv9cdNHu7mU99Qaj6" type="github">
  <diagram name="Страница — 1" id="62y9JPkQtLd_7utZiFyw">
    <mxGraphModel>
      <root>
        <mxCell id="0" />
        <mxCell id="1" parent="0" />
      </root>
    </mxGraphModel>
  </diagram>
</mxfile>
